<?xml version="1.0" encoding="UTF-8"?>
<svg id="Layer_1" data-name="Layer 1" xmlns="http://www.w3.org/2000/svg" viewBox="0 0 1000 400">
  <defs>
    <style>
      .cls-1 {
        fill: #00184a;
      }
    </style>
  </defs>
  <g>
    <path class="cls-1" d="M138.93,95.22c-5.35-2.89-11.82-4.33-19.42-4.33h-39.51v100.16h21.18v-32.47h17.8c7.69,0,14.25-1.42,19.68-4.26,5.43-2.83,9.58-6.8,12.45-11.88,2.87-5.09,4.3-10.96,4.3-17.61s-1.41-12.53-4.23-17.63c-2.82-5.1-6.91-9.09-12.25-11.98ZM131.62,133.56c-1.32,2.53-3.31,4.5-5.96,5.92-2.66,1.42-6.02,2.13-10.1,2.13h-14.38v-33.4h14.28c4.11,0,7.5.69,10.17,2.08,2.67,1.39,4.67,3.33,5.99,5.82,1.32,2.49,1.98,5.4,1.98,8.73s-.66,6.2-1.98,8.73Z"/>
    <path class="cls-1" d="M223.44,118.35c-3.9-2.27-8.45-3.4-13.67-3.4-5.71,0-10.45,1.26-14.23,3.79-3.78,2.53-6.52,6.01-8.21,10.44h-.88v-38.29h-20.25v100.16h20.83v-43.43c.03-3.23.66-5.99,1.88-8.29,1.22-2.3,2.92-4.05,5.09-5.26,2.17-1.21,4.67-1.81,7.51-1.81,4.24,0,7.54,1.29,9.9,3.86,2.36,2.57,3.53,6.18,3.5,10.81v44.11h20.83v-47.83c.03-5.87-1.04-10.92-3.2-15.14-2.17-4.22-5.2-7.47-9.09-9.73Z"/>
    <path class="cls-1" d="M260.02,85.17c-3.06,0-5.7,1.04-7.92,3.11-2.22,2.07-3.33,4.56-3.33,7.46s1.1,5.38,3.3,7.43c2.2,2.05,4.85,3.08,7.95,3.08s5.75-1.04,7.95-3.11c2.2-2.07,3.3-4.56,3.3-7.46s-1.1-5.38-3.3-7.43c-2.2-2.05-4.85-3.08-7.95-3.08Z"/>
    <rect class="cls-1" x="249.55" y="115.93" width="20.83" height="75.12"/>
    <rect class="cls-1" x="284.39" y="90.9" width="20.83" height="100.16"/>
    <rect class="cls-1" x="319.24" y="90.9" width="20.83" height="100.16"/>
    <path class="cls-1" d="M364.55,85.17c-3.06,0-5.7,1.04-7.92,3.11-2.22,2.07-3.33,4.56-3.33,7.46s1.1,5.38,3.3,7.43c2.2,2.05,4.85,3.08,7.95,3.08s5.75-1.04,7.95-3.11c2.2-2.07,3.3-4.56,3.3-7.46s-1.1-5.38-3.3-7.43c-2.2-2.05-4.85-3.08-7.95-3.08Z"/>
    <rect class="cls-1" x="354.08" y="115.93" width="20.83" height="75.12"/>
    <path class="cls-1" d="M446.93,119.23c-4.63-2.85-9.68-4.28-15.16-4.28-4.21,0-7.72.71-10.54,2.13-2.82,1.42-5.1,3.18-6.85,5.28-1.75,2.1-3.07,4.16-3.99,6.19h-.93v-12.62h-20.54v103.29h20.83v-40.2h.64c.95,2.09,2.31,4.15,4.11,6.19,1.79,2.04,4.1,3.73,6.92,5.06,2.82,1.34,6.25,2.01,10.3,2.01,5.7,0,10.86-1.48,15.48-4.43,4.61-2.95,8.26-7.3,10.95-13.06s4.04-12.82,4.04-21.2-1.39-15.77-4.16-21.5c-2.77-5.72-6.47-10.01-11.1-12.86ZM439.08,165.06c-1.22,3.34-3.01,5.95-5.35,7.83-2.35,1.87-5.22,2.81-8.61,2.81s-6.21-.92-8.56-2.76c-2.35-1.84-4.14-4.43-5.38-7.75-1.24-3.33-1.86-7.22-1.86-11.69s.62-8.35,1.86-11.64c1.24-3.29,3.03-5.84,5.36-7.63,2.33-1.79,5.19-2.69,8.58-2.69s6.31.93,8.66,2.79c2.35,1.86,4.12,4.43,5.33,7.73,1.2,3.29,1.81,7.11,1.81,11.44s-.61,8.23-1.83,11.57Z"/>
    <path class="cls-1" d="M505.63,112.1c3.85-2.56,8.36-3.84,13.55-3.84,2.87,0,5.54.41,8,1.22,2.46.82,4.64,1.99,6.53,3.52,1.89,1.53,3.44,3.38,4.65,5.55,1.2,2.17,2,4.64,2.39,7.41h21.42c-.68-5.8-2.24-10.96-4.67-15.46-2.43-4.5-5.57-8.31-9.41-11.42-3.85-3.11-8.26-5.48-13.23-7.12-4.97-1.63-10.36-2.45-16.16-2.45-8.8,0-16.72,2.01-23.77,6.04-7.04,4.03-12.62,9.87-16.73,17.53-4.11,7.66-6.16,16.95-6.16,27.88s2.03,20.17,6.09,27.83c4.06,7.66,9.6,13.51,16.63,17.56,7.02,4.04,15.01,6.07,23.94,6.07,6.42,0,12.19-.97,17.29-2.91,5.1-1.94,9.5-4.58,13.21-7.92,3.7-3.34,6.65-7.14,8.85-11.39,2.2-4.26,3.58-8.68,4.13-13.28l-21.42-.1c-.49,2.67-1.36,5.06-2.61,7.14-1.26,2.09-2.83,3.85-4.72,5.3-1.89,1.45-4.05,2.55-6.48,3.3-2.43.75-5.06,1.12-7.9,1.12-5.06,0-9.5-1.24-13.35-3.71-3.85-2.48-6.84-6.15-8.97-11-2.13-4.86-3.2-10.86-3.2-18s1.06-12.85,3.18-17.73c2.12-4.88,5.1-8.59,8.95-11.15Z"/>
    <path class="cls-1" d="M628.44,120.97c-2.98-2.05-6.39-3.57-10.22-4.55-3.83-.98-7.83-1.47-12.01-1.47-6,0-11.27.9-15.82,2.71-4.55,1.81-8.26,4.38-11.12,7.73-2.87,3.34-4.8,7.29-5.77,11.86l19.27,1.57c.72-2.48,2.18-4.54,4.4-6.19,2.22-1.65,5.2-2.47,8.95-2.47,3.55,0,6.3.85,8.24,2.54,1.94,1.69,2.91,4.09,2.91,7.19v.29c0,1.6-.61,2.81-1.81,3.62-1.21.82-3.15,1.43-5.82,1.83-2.67.41-6.2.84-10.56,1.3-3.72.36-7.26.98-10.64,1.86-3.38.88-6.38,2.18-9.02,3.91-2.64,1.73-4.73,4.01-6.26,6.85-1.53,2.84-2.3,6.34-2.3,10.52,0,4.96,1.08,9.09,3.25,12.4,2.17,3.31,5.13,5.8,8.87,7.48,3.75,1.68,8.02,2.52,12.81,2.52,3.72,0,6.99-.5,9.83-1.49,2.84-.99,5.27-2.38,7.29-4.16,2.02-1.78,3.63-3.84,4.84-6.19h.59v10.42h19.76v-50.67c0-4.47-.86-8.31-2.59-11.52-1.73-3.21-4.08-5.85-7.07-7.9ZM617.41,164.2c0,2.64-.67,5-2,7.09-1.34,2.09-3.18,3.74-5.53,4.96-2.35,1.22-5.06,1.83-8.12,1.83s-5.83-.74-7.9-2.23c-2.07-1.48-3.11-3.64-3.11-6.48,0-1.96.5-3.6,1.52-4.92,1.01-1.32,2.43-2.37,4.26-3.15,1.82-.78,3.96-1.35,6.41-1.71,1.14-.16,2.41-.35,3.81-.56,1.4-.21,2.8-.46,4.21-.73,1.4-.28,2.67-.58,3.79-.93,1.13-.34,2.01-.73,2.67-1.15v7.97Z"/>
    <path class="cls-1" d="M709.66,119.23c-4.63-2.85-9.68-4.28-15.16-4.28-4.21,0-7.72.71-10.54,2.13-2.82,1.42-5.1,3.18-6.85,5.28-1.75,2.1-3.07,4.16-3.99,6.19h-.93v-12.62h-20.54v103.29h20.83v-40.2h.64c.95,2.09,2.31,4.15,4.11,6.19,1.79,2.04,4.1,3.73,6.92,5.06,2.82,1.34,6.25,2.01,10.3,2.01,5.7,0,10.86-1.48,15.48-4.43,4.61-2.95,8.26-7.3,10.95-13.06s4.04-12.82,4.04-21.2-1.39-15.77-4.16-21.5c-2.77-5.72-6.47-10.01-11.1-12.86ZM701.81,165.06c-1.22,3.34-3.01,5.95-5.35,7.83-2.35,1.87-5.22,2.81-8.61,2.81s-6.21-.92-8.56-2.76-4.14-4.43-5.38-7.75c-1.24-3.33-1.86-7.22-1.86-11.69s.62-8.35,1.86-11.64c1.24-3.29,3.03-5.84,5.36-7.63,2.33-1.79,5.19-2.69,8.58-2.69s6.31.93,8.66,2.79c2.35,1.86,4.12,4.43,5.33,7.73,1.2,3.29,1.81,7.11,1.81,11.44s-.61,8.23-1.83,11.57Z"/>
    <rect class="cls-1" x="736.15" y="115.93" width="20.83" height="75.12"/>
    <path class="cls-1" d="M746.61,85.17c-3.06,0-5.7,1.04-7.92,3.11-2.22,2.07-3.33,4.56-3.33,7.46s1.1,5.38,3.3,7.43c2.2,2.05,4.85,3.08,7.95,3.08s5.75-1.04,7.95-3.11c2.2-2.07,3.3-4.56,3.3-7.46s-1.1-5.38-3.3-7.43c-2.2-2.05-4.85-3.08-7.95-3.08Z"/>
    <path class="cls-1" d="M806.79,175.04c-.98.18-1.96.27-2.93.27-1.4,0-2.63-.21-3.69-.64-1.06-.42-1.88-1.16-2.47-2.23-.59-1.06-.88-2.55-.88-4.47v-36.39h14.13v-15.65h-14.13v-18h-20.83v18h-10.27v15.65h10.27v39.12c-.03,4.92.99,9,3.08,12.23,2.09,3.23,5.01,5.61,8.78,7.14,3.77,1.53,8.16,2.2,13.18,2.01,2.71-.1,5-.37,6.9-.81,1.89-.44,3.36-.82,4.4-1.15l-3.28-15.5c-.52.1-1.27.24-2.25.42Z"/>
    <path class="cls-1" d="M875.94,120.97c-2.98-2.05-6.39-3.57-10.22-4.55-3.83-.98-7.83-1.47-12.01-1.47-6,0-11.27.9-15.82,2.71-4.55,1.81-8.26,4.38-11.12,7.73-2.87,3.34-4.8,7.29-5.77,11.86l19.27,1.57c.72-2.48,2.18-4.54,4.4-6.19,2.22-1.65,5.2-2.47,8.95-2.47,3.55,0,6.3.85,8.24,2.54,1.94,1.69,2.91,4.09,2.91,7.19v.29c0,1.6-.61,2.81-1.81,3.62-1.21.82-3.15,1.43-5.82,1.83-2.67.41-6.2.84-10.56,1.3-3.72.36-7.26.98-10.64,1.86-3.38.88-6.38,2.18-9.02,3.91-2.64,1.73-4.73,4.01-6.26,6.85-1.53,2.84-2.3,6.34-2.3,10.52,0,4.96,1.08,9.09,3.25,12.4,2.17,3.31,5.13,5.8,8.87,7.48,3.75,1.68,8.02,2.52,12.81,2.52,3.72,0,6.99-.5,9.83-1.49,2.84-.99,5.27-2.38,7.29-4.16,2.02-1.78,3.63-3.84,4.84-6.19h.59v10.42h19.76v-50.67c0-4.47-.86-8.31-2.59-11.52-1.73-3.21-4.08-5.85-7.07-7.9ZM864.91,164.2c0,2.64-.67,5-2,7.09-1.34,2.09-3.18,3.74-5.53,4.96-2.35,1.22-5.06,1.83-8.12,1.83s-5.83-.74-7.9-2.23c-2.07-1.48-3.11-3.64-3.11-6.48,0-1.96.5-3.6,1.52-4.92,1.01-1.32,2.43-2.37,4.26-3.15,1.82-.78,3.96-1.35,6.41-1.71,1.14-.16,2.41-.35,3.81-.56,1.4-.21,2.8-.46,4.21-.73,1.4-.28,2.67-.58,3.79-.93,1.13-.34,2.01-.73,2.67-1.15v7.97Z"/>
    <rect class="cls-1" x="899.17" y="90.9" width="20.83" height="100.16"/>
  </g>
  <g>
    <path class="cls-1" d="M190.67,263.67h-8.61v30.61c0,2.49.73,4.42,2.21,5.8,1.47,1.38,3.51,2.07,6.13,2.07h6.44v-6.6h-3.29c-.89,0-1.59-.22-2.1-.67-.51-.44-.77-1.09-.77-1.93v-29.28"/>
    <path class="cls-1" d="M244.8,263.67h-8.19v27.81c0,1.29-.41,2.36-1.23,3.2-.82.85-1.9,1.27-3.26,1.27s-2.43-.41-3.22-1.23c-.79-.82-1.19-1.9-1.19-3.23v-27.81h-7.56v27.81c0,1.29-.41,2.36-1.23,3.2-.82.85-1.88,1.27-3.19,1.27s-2.44-.41-3.26-1.23c-.82-.82-1.22-1.9-1.22-3.23v-27.81h-8.82c.42,1.33.63,3.42.63,6.27v22.27c0,3.16,1.05,5.67,3.15,7.54,2.1,1.87,4.85,2.8,8.26,2.8,2.89,0,5.31-.72,7.25-2.17.9-.67,1.62-1.44,2.17-2.31.55.87,1.28,1.64,2.17,2.31,1.94,1.44,4.4,2.17,7.39,2.17,3.41,0,6.15-.93,8.23-2.8,2.08-1.87,3.12-4.38,3.12-7.54v-28.54"/>
    <polyline class="cls-1" points="244.87 246.66 238.01 246.66 238.01 252.47 234.16 252.47 234.16 246.66 227.43 246.66 227.43 252.47 215.18 252.47 213.85 258.47 244.87 258.47 244.87 246.66"/>
    <polyline class="cls-1" points="244.66 233.73 236.89 233.73 236.89 243.2 244.66 243.2 244.66 233.73"/>
    <path class="cls-1" d="M270.15,263c-4.34,0-8.02,1.08-11.03,3.24-3.01,2.16-5.01,5.12-5.99,8.9h8.47c.65-1.6,1.73-2.91,3.22-3.94,1.49-1.02,3.22-1.53,5.18-1.53s3.82.53,5.29,1.6c1.47,1.07,2.6,2.59,3.4,4.57.79,1.98,1.19,4.37,1.19,7.17s-.4,5.06-1.19,7.04c-.8,1.98-1.93,3.5-3.4,4.57-1.47,1.07-3.26,1.6-5.36,1.6-1.91,0-3.58-.48-5.01-1.43-1.42-.96-2.53-2.31-3.33-4.07-.64-1.41-1.02-3.02-1.14-4.84h9.2v-5.67h-17.16c-.24,1.16-.35,2.49-.35,4,0,3.73.73,7.01,2.2,9.84,1.47,2.82,3.57,5,6.3,6.54,2.73,1.53,5.92,2.3,9.56,2.3s6.91-.82,9.67-2.47c2.75-1.64,4.88-3.95,6.37-6.94,1.49-2.98,2.24-6.49,2.24-10.54s-.74-7.57-2.21-10.57c-1.47-3-3.61-5.31-6.41-6.94-2.8-1.62-6.05-2.44-9.73-2.44"/>
    <path class="cls-1" d="M329.04,263.67h-8.54v21.74c0,2.04-.36,3.83-1.09,5.37-.72,1.54-1.75,2.71-3.08,3.53-1.33.83-2.88,1.24-4.66,1.24-2.19,0-3.91-.6-5.15-1.8-1.24-1.2-1.86-2.89-1.86-5.07v-25.01h-9.17c.42,1.25.63,3.33.63,6.27v19.74c0,2.58.5,4.86,1.5,6.84,1,1.98,2.46,3.5,4.38,4.57,1.91,1.07,4.18,1.6,6.79,1.6,3.64,0,6.74-1.12,9.31-3.37,1.24-1.09,2.24-2.35,2.99-3.8.02.3.04.61.06.93.07,1.09.13,2.26.18,3.5l.35,2.2h8.19c-.56-5.38-.84-9.58-.84-12.61v-25.88"/>
    <path class="cls-1" d="M351.8,263c-2.85,0-5.38.45-7.6,1.33-2.22.89-3.94,2.21-5.18,3.97-1.24,1.76-1.86,3.81-1.86,6.17s.55,4.22,1.65,5.74c1.1,1.51,2.61,2.69,4.55,3.53,1.94.84,4.35,1.47,7.25,1.87,2.05.36,3.67.72,4.83,1.1,1.17.38,2.07.91,2.7,1.6.63.69.94,1.61.94,2.77,0,1.65-.62,2.96-1.85,3.94-1.24.98-2.93,1.47-5.08,1.47s-3.83-.52-5.32-1.57c-1.5-1.04-2.43-2.43-2.8-4.17l-7.77,1.47c.56,3.29,2.29,5.89,5.18,7.8,2.89,1.91,6.49,2.87,10.78,2.87,3.03,0,5.7-.49,7.98-1.47,2.29-.98,4.06-2.4,5.32-4.27,1.26-1.87,1.89-4.09,1.89-6.67s-.55-4.5-1.65-6.04c-1.1-1.53-2.7-2.73-4.8-3.6-2.1-.87-4.79-1.52-8.05-1.97-1.82-.31-3.27-.68-4.34-1.1-1.08-.42-1.87-.92-2.38-1.5-.51-.58-.77-1.33-.77-2.27,0-1.51.6-2.68,1.79-3.5,1.19-.82,2.77-1.24,4.73-1.24s3.4.41,4.59,1.24c1.19.82,1.86,1.94,2,3.37h7.98c-.23-3.38-1.67-6.04-4.31-7.97-2.64-1.93-6.1-2.9-10.4-2.9"/>
    <polyline class="cls-1" points="365.17 247.06 356.98 247.06 356.98 258.47 365.17 258.47 365.17 247.06"/>
    <path class="cls-1" d="M387.93,263c-4.3,0-7.88,1.12-10.75,3.37-2.87,2.25-4.66,5.35-5.36,9.3h8.4c.47-1.78,1.37-3.19,2.7-4.24,1.33-1.04,2.93-1.57,4.8-1.57s3.33.51,4.66,1.53c1.33,1.02,2.34,2.5,3.04,4.44.7,1.93,1.05,4.26,1.05,6.97s-.35,5.11-1.05,7.07c-.7,1.96-1.7,3.46-3.01,4.5-1.31,1.05-2.85,1.57-4.62,1.57s-3.36-.54-4.76-1.64c-1.4-1.09-2.38-2.61-2.94-4.57l-8.05,2c.93,3.42,2.82,6.14,5.67,8.14,2.85,2,6.26,3,10.23,3,3.55,0,6.62-.81,9.21-2.43,2.59-1.62,4.57-3.93,5.95-6.9,1.38-2.98,2.07-6.51,2.07-10.6s-.7-7.64-2.1-10.64c-1.4-3-3.41-5.3-6.02-6.9-2.62-1.6-5.65-2.4-9.1-2.4"/>
    <path class="cls-1" d="M446.06,263.67h-8.47v25.01c0,2.09-.62,3.76-1.85,5-1.24,1.25-2.95,1.87-5.15,1.87-1.73,0-3.27-.41-4.62-1.24-1.36-.82-2.42-2-3.19-3.53-.77-1.53-1.15-3.32-1.15-5.37v-21.74h-9.1c.23.71.4,1.51.49,2.4.09.89.14,2.18.14,3.87v19.87c0,3.56-.21,7.67-.63,12.34h8.05c.14-1.02.23-1.96.28-2.8.11-1.38.19-2.6.23-3.68.75,1.45,1.77,2.72,3.06,3.81,2.52,2.13,5.58,3.2,9.17,3.2,2.57,0,4.82-.56,6.76-1.67,1.94-1.11,3.42-2.67,4.45-4.67,1.03-2,1.54-4.31,1.54-6.94v-25.74"/>
    <path class="cls-1" d="M476.03,263.2c-3.6,0-6.63.98-9.1,2.93-1.34,1.06-2.41,2.34-3.21,3.82-.09-1.69-.31-3.79-.65-6.29h-8.26c.56,4.36.84,8.47.84,12.34v26.14h8.54v-20.94c0-2.27.36-4.22,1.08-5.87.72-1.65,1.78-2.9,3.19-3.77,1.4-.87,3.01-1.3,4.83-1.3,2.24,0,3.97.61,5.18,1.83,1.21,1.22,1.82,2.92,1.82,5.1v24.94h8.61v-26.14c0-2.53-.54-4.77-1.61-6.7-1.07-1.93-2.59-3.43-4.55-4.5-1.96-1.07-4.2-1.6-6.72-1.6"/>
    <path class="cls-1" d="M502.92,263.67h-7.7v6.67h5.25c1.63,0,2.89.41,3.78,1.24.89.82,1.33,1.99,1.33,3.5v27.08h8.54v-28.55c0-3.16-.99-5.6-2.98-7.34-1.98-1.74-4.73-2.6-8.23-2.6"/>
    <path class="cls-1" d="M536.04,263.67h-2.94l-1.4,6.54h2.66c2.94,0,5.26,1.08,6.97,3.23,1.7,2.16,2.56,5.28,2.56,9.37,0,2.49-.33,4.72-.98,6.7-.65,1.98-1.55,3.54-2.7,4.7-1.09,1.11-2.37,1.73-3.83,1.85l-8.18-21.46h-8.4l10.64,27.54h7.14c2.94,0,5.55-.84,7.84-2.53,2.29-1.69,4.05-4.04,5.29-7.04,1.24-3,1.86-6.35,1.86-10.04,0-3.96-.68-7.34-2.03-10.14-1.36-2.8-3.28-4.96-5.78-6.47-2.5-1.51-5.41-2.27-8.72-2.27"/>
    <path class="cls-1" d="M576.45,263c-2.99,0-5.73.46-8.23,1.37-2.5.91-4.54,2.21-6.13,3.9-1.59,1.69-2.59,3.67-3.01,5.94,1.35.09,2.46.48,3.33,1.17.86.69,1.29,1.57,1.29,2.63,0,.93-.34,1.75-1.01,2.43-.68.69-1.55,1.15-2.63,1.37v20.34h8.54v-18.86c.55-.34,1.03-.76,1.44-1.25.86-1.04,1.29-2.28,1.29-3.7,0-1.33-.41-2.49-1.22-3.47-.58-.69-1.28-1.23-2.1-1.61.53-.76,1.23-1.41,2.1-1.96,1.66-1.04,3.65-1.57,5.99-1.57,2.66,0,4.79.68,6.37,2.03,1.59,1.36,2.38,3.17,2.38,5.44v24.94h8.54v-25.34c0-2.76-.7-5.19-2.1-7.3-1.4-2.11-3.38-3.72-5.95-4.84-2.57-1.11-5.53-1.67-8.89-1.67"/>
    <path class="cls-1" d="M606.98,263.67h-7.7v6.67h5.25c1.63,0,2.89.41,3.78,1.24.89.82,1.33,1.99,1.33,3.5v27.08h8.54v-28.55c0-3.16-.99-5.6-2.98-7.34-1.98-1.74-4.73-2.6-8.23-2.6"/>
    <path class="cls-1" d="M640.8,263c-2.85,0-5.38.45-7.6,1.33-2.22.89-3.94,2.21-5.18,3.97-1.24,1.76-1.86,3.81-1.86,6.17s.55,4.22,1.65,5.74c1.1,1.51,2.61,2.69,4.55,3.53,1.94.84,4.35,1.47,7.25,1.87,2.05.36,3.67.72,4.83,1.1,1.17.38,2.07.91,2.7,1.6.63.69.94,1.61.94,2.77,0,1.65-.62,2.96-1.85,3.94-1.24.98-2.93,1.47-5.08,1.47s-3.83-.52-5.32-1.57c-1.5-1.04-2.43-2.43-2.8-4.17l-7.77,1.47c.56,3.29,2.29,5.89,5.18,7.8,2.89,1.91,6.49,2.87,10.78,2.87,3.03,0,5.7-.49,7.98-1.47,2.29-.98,4.06-2.4,5.32-4.27,1.26-1.87,1.89-4.09,1.89-6.67s-.55-4.5-1.65-6.04c-1.1-1.53-2.7-2.73-4.8-3.6-2.1-.87-4.79-1.52-8.05-1.97-1.82-.31-3.27-.68-4.34-1.1-1.07-.42-1.87-.92-2.38-1.5-.51-.58-.77-1.33-.77-2.27,0-1.51.6-2.68,1.79-3.5,1.19-.82,2.76-1.24,4.73-1.24s3.4.41,4.59,1.24c1.19.82,1.86,1.94,2,3.37h7.98c-.23-3.38-1.67-6.04-4.31-7.97-2.64-1.93-6.1-2.9-10.4-2.9"/>
    <path class="cls-1" d="M679.39,263c-4.62,0-8.44,1.06-11.45,3.17-3.01,2.11-4.77,5.01-5.29,8.7h8.33c.33-1.6,1.23-2.89,2.7-3.87,1.47-.98,3.28-1.47,5.43-1.47s3.91.45,5.29,1.37c1.38.91,2.06,2.15,2.06,3.7,0,1.07-.36,1.9-1.08,2.5-.72.6-1.7,1.04-2.94,1.33-1.24.29-2.91.59-5.01.9h-.28c-3.22.49-5.92,1.1-8.09,1.83-2.17.73-3.93,1.93-5.29,3.6-1.36,1.67-2.03,3.9-2.03,6.7,0,3.6,1.06,6.35,3.19,8.24,2.12,1.89,5.1,2.83,8.93,2.83,1.4,0,2.71-.12,3.92-.37,1.21-.24,2.19-.59,2.94-1.03l-1.47-5.53c-.47.18-1.06.36-1.79.53-.72.18-1.41.27-2.06.27-1.59,0-2.85-.44-3.78-1.33-.93-.89-1.4-2.11-1.4-3.67,0-1.38.36-2.46,1.09-3.23.72-.78,1.67-1.36,2.84-1.73,1.17-.38,2.73-.72,4.69-1.03,2.66-.45,4.66-.95,5.99-1.5.68-.28,1.23-.65,1.64-1.1v19.34h8.48v-27.54c0-2.4-.64-4.48-1.93-6.24-1.28-1.76-3.1-3.09-5.46-4-2.36-.91-5.08-1.37-8.16-1.37"/>
    <path class="cls-1" d="M716.78,263.67h-2.94l-1.4,6.54h2.66c2.94,0,5.26,1.08,6.97,3.23,1.7,2.16,2.56,5.28,2.56,9.37,0,2.49-.33,4.72-.98,6.7-.65,1.98-1.55,3.54-2.7,4.7-1.09,1.11-2.37,1.73-3.83,1.85l-8.18-21.46h-8.4l10.64,27.54h7.14c2.94,0,5.55-.84,7.84-2.53,2.29-1.69,4.05-4.04,5.29-7.04,1.24-3,1.86-6.35,1.86-10.04,0-3.96-.68-7.34-2.03-10.14-1.36-2.8-3.28-4.96-5.78-6.47-2.5-1.51-5.41-2.27-8.72-2.27"/>
    <path class="cls-1" d="M761.6,263.2c-3.6,0-6.63.98-9.1,2.93-1.35,1.06-2.41,2.34-3.21,3.82-.09-1.69-.31-3.79-.65-6.29h-8.26c.56,4.36.84,8.47.84,12.34v26.14h8.54v-20.94c0-2.27.36-4.22,1.09-5.87.72-1.65,1.78-2.9,3.19-3.77,1.4-.87,3.01-1.3,4.83-1.3,2.24,0,3.97.61,5.18,1.83,1.21,1.22,1.82,2.92,1.82,5.1v24.94h8.61v-26.14c0-2.53-.54-4.77-1.61-6.7-1.07-1.93-2.59-3.43-4.55-4.5-1.96-1.07-4.2-1.6-6.72-1.6"/>
    <path class="cls-1" d="M769.3,307.09h-7.91v5.67h3.78c.51,0,.92.13,1.22.4.3.27.46.67.46,1.2v6.47h7.77v-8.94c0-1.56-.47-2.75-1.4-3.57-.93-.82-2.24-1.23-3.92-1.23"/>
    <path class="cls-1" d="M816.71,263.67h-8.54v21.74c0,2.04-.36,3.83-1.09,5.37-.72,1.54-1.75,2.71-3.08,3.53-1.33.83-2.88,1.24-4.66,1.24-2.2,0-3.91-.6-5.15-1.8-1.24-1.2-1.86-2.89-1.86-5.07v-25.01h-9.17c.42,1.25.63,3.33.63,6.27v19.74c0,2.58.5,4.86,1.5,6.84,1,1.98,2.46,3.5,4.38,4.57,1.91,1.07,4.18,1.6,6.79,1.6,3.64,0,6.75-1.12,9.31-3.37,1.24-1.09,2.24-2.35,2.99-3.8.02.3.04.61.06.93.07,1.09.13,2.26.18,3.5l.35,2.2h8.19c-.56-5.38-.84-9.58-.84-12.61v-25.88"/>
  </g>
</svg>